<?xml version="1.0" encoding="utf-8"?>
<!-- Generator: Adobe Illustrator 16.0.0, SVG Export Plug-In . SVG Version: 6.00 Build 0)  -->
<!DOCTYPE svg PUBLIC "-//W3C//DTD SVG 1.1//EN" "http://www.w3.org/Graphics/SVG/1.1/DTD/svg11.dtd">
<svg version="1.1" id="Layer_1" xmlns="http://www.w3.org/2000/svg" xmlns:xlink="http://www.w3.org/1999/xlink" x="0px" y="0px"
	 width="248.15px" height="159.487px" viewBox="162.511 261.411 248.15 159.487"
	 enable-background="new 162.511 261.411 248.15 159.487" xml:space="preserve">
<polygon fill="#009C92" points="296.729,355.656 285.064,382.307 263.464,382.29 275.165,355.656 "/>
<polygon fill="#29A69D" points="321.853,355.66 310.191,382.311 289.76,382.29 301.462,355.66 "/>
<polygon fill="#52AFA8" points="345.81,355.66 334.146,382.307 314.886,382.29 326.585,355.66 "/>
<polygon fill="#6FBAB4" points="368.597,355.66 356.935,382.307 338.843,382.29 350.544,355.66 "/>
<polygon fill="#8BC5C0" points="390.212,355.66 378.552,382.311 361.628,382.29 373.332,355.66 "/>
<polygon fill="#A5D1CD" points="410.662,355.66 399,382.307 383.248,382.29 394.949,355.66 "/>
<g>
	<path fill="#F37321" d="M292.765,326.976c0-11.008,6.18-13.604,16.564-13.604h18.484c10.387,0,16.564,2.597,16.564,13.604v11.216
		c0,1.194-0.053,2.232-0.26,3.271l4.568,2.804l-4.777,7.529l-4.258-2.44c-2.805,1.817-6.803,2.44-11.838,2.44h-18.486
		c-10.385,0-16.563-2.596-16.563-13.604L292.765,326.976L292.765,326.976z M304.604,334.609c0,5.452,1.144,7.529,6.595,7.529h14.748
		c0.623,0,1.246-0.052,1.766-0.052v-0.104l-10.854-6.595l4.777-7.685l10.904,6.699v-3.843c0-4.673-1.143-7.529-7.219-7.529h-13.5
		c-6.076,0-7.219,2.856-7.219,7.529L304.604,334.609L304.604,334.609z"/>
	<path fill="#F37321" d="M351.744,313.787h34.791c11.527,0,15.578,3.791,15.578,13.085v11.423c0,9.295-4.051,13.085-15.578,13.085
		h-34.791V313.787z M363.271,341.723h20.459c4.934,0,6.854-1.402,6.854-6.75v-5.088c0-5.349-1.922-6.75-6.854-6.75h-20.459V341.723z
		"/>
</g>
<polygon fill="#008D7F" points="162.511,382.857 209.813,275.413 245.004,261.411 191.042,382.878 "/>
<polygon fill="#008D7F" points="213.205,420.879 260.506,313.436 295.699,299.432 241.734,420.898 "/>
<g>
	<path fill="#F37321" d="M316.128,388.407h6.045v1.091h-4.953v3.801h4.705v1.091h-4.705v4.206h4.922v1.092h-6.014V388.407z"/>
	<path fill="#F37321" d="M323.917,388.407h1.09v10.096h4.752v1.185h-5.842V388.407L323.917,388.407z"/>
	<path fill="#F37321" d="M331.128,388.407h6.045v1.091h-4.955v3.801h4.705v1.091h-4.705v4.206h4.924v1.092h-6.014V388.407z"/>
	<path fill="#F37321" d="M346.238,396.789c0,2.445-0.764,3.021-3.488,3.021c-2.977,0-3.988-0.562-3.988-3.864v-3.801
		c0-3.303,1.014-3.864,3.988-3.864c2.492,0,3.488,0.327,3.488,2.944v0.811h-0.996v-0.732c0-1.76-0.576-1.932-2.492-1.932
		c-2.572,0-2.898,0.343-2.898,2.835v3.677c0,2.493,0.326,2.836,2.898,2.836c2.273,0,2.492-0.499,2.492-2.041v-0.748h0.996V396.789z"
		/>
	<path fill="#F37321" d="M350.099,389.498h-3.084v-1.091h7.262v1.091h-3.086v10.188h-1.092V389.498z"/>
	<path fill="#F37321" d="M355.332,388.407h4.611c1.979,0,2.727,0.686,2.727,3.193c0,1.947-0.404,2.727-1.434,2.991v0.031
		c0.889,0.249,1.248,0.919,1.248,1.979v3.085h-1.092v-2.569c0-1.496-0.422-1.963-2.135-1.963h-2.836v4.533h-1.09V388.407
		L355.332,388.407z M356.423,394.062h3.535c1.139,0,1.621-0.717,1.621-2.274c0-2.119-0.281-2.29-1.963-2.29h-3.193V394.062z"/>
	<path fill="#F37321" d="M364.802,388.407h1.09v11.278h-1.09V388.407z"/>
	<path fill="#F37321" d="M375.347,396.789c0,2.445-0.764,3.021-3.488,3.021c-2.977,0-3.988-0.562-3.988-3.864v-3.801
		c0-3.303,1.014-3.864,3.988-3.864c2.492,0,3.488,0.327,3.488,2.944v0.811h-0.996v-0.732c0-1.76-0.576-1.932-2.492-1.932
		c-2.57,0-2.898,0.343-2.898,2.835v3.677c0,2.493,0.328,2.836,2.898,2.836c2.273,0,2.492-0.499,2.492-2.041v-0.748h0.996V396.789z"
		/>
	<path fill="#F37321" d="M289.425,402.252h1.823l3.411,9.955h0.031l3.412-9.955h1.823v11.279h-1.092v-10.097h-0.031l-3.535,10.097
		h-1.185l-3.536-10.097h-0.031v10.097h-1.091L289.425,402.252L289.425,402.252z"/>
	<path fill="#F37321" d="M301.667,405.991c0-3.304,1.014-3.864,3.974-3.864s3.974,0.563,3.974,3.864v3.801
		c0,3.303-1.014,3.864-3.974,3.864s-3.974-0.563-3.974-3.864V405.991z M308.523,406.054c0-2.493-0.328-2.836-2.883-2.836
		c-2.557,0-2.883,0.343-2.883,2.836v3.677c0,2.492,0.326,2.836,2.883,2.836c2.555,0,2.883-0.344,2.883-2.836V406.054z"/>
	<path fill="#F37321" d="M313.599,403.343h-3.084v-1.091h7.26v1.091h-3.084v10.188h-1.092V403.343z"/>
	<path fill="#F37321" d="M318.675,405.991c0-3.304,1.014-3.864,3.975-3.864c2.959,0,3.973,0.563,3.973,3.864v3.801
		c0,3.303-1.014,3.864-3.973,3.864c-2.961,0-3.975-0.563-3.975-3.864V405.991z M325.531,406.054c0-2.493-0.328-2.836-2.883-2.836
		c-2.557,0-2.883,0.343-2.883,2.836v3.677c0,2.492,0.326,2.836,2.883,2.836c2.555,0,2.883-0.344,2.883-2.836V406.054z"/>
	<path fill="#F37321" d="M328.363,402.252h4.611c1.979,0,2.727,0.687,2.727,3.193c0,1.946-0.404,2.727-1.434,2.99v0.031
		c0.889,0.249,1.246,0.919,1.246,1.979v3.085h-1.09v-2.57c0-1.496-0.422-1.963-2.135-1.963h-2.836v4.533h-1.09V402.252
		L328.363,402.252z M329.455,407.907h3.535c1.139,0,1.621-0.717,1.621-2.274c0-2.119-0.281-2.29-1.963-2.29h-3.193V407.907z"/>
	<path fill="#F37321" d="M349.251,410.634c0,2.445-0.764,3.022-3.488,3.022c-2.977,0-3.988-0.563-3.988-3.864v-3.801
		c0-3.304,1.014-3.864,3.988-3.864c2.492,0,3.488,0.327,3.488,2.944v0.811h-0.996v-0.731c0-1.761-0.576-1.933-2.492-1.933
		c-2.57,0-2.898,0.343-2.898,2.836v3.677c0,2.492,0.328,2.836,2.898,2.836c2.273,0,2.492-0.499,2.492-2.041v-0.748h0.996V410.634z"
		/>
	<path fill="#F37321" d="M350.714,405.991c0-3.304,1.014-3.864,3.973-3.864c2.961,0,3.975,0.563,3.975,3.864v3.801
		c0,3.303-1.014,3.864-3.975,3.864c-2.959,0-3.973-0.563-3.973-3.864V405.991z M357.57,406.054c0-2.493-0.328-2.836-2.883-2.836
		c-2.557,0-2.883,0.343-2.883,2.836v3.677c0,2.492,0.326,2.836,2.883,2.836c2.555,0,2.883-0.344,2.883-2.836V406.054z"/>
	<path fill="#F37321" d="M360.402,402.252h1.729l5.064,10.096h0.029v-10.096h1.092v11.279h-1.73l-5.063-10.097h-0.031v10.097h-1.09
		V402.252L360.402,402.252z"/>
	<path fill="#F37321" d="M372.457,403.343h-3.084v-1.091h7.26v1.091h-3.084v10.188h-1.092V403.343z"/>
	<path fill="#F37321" d="M377.691,402.252h4.609c1.98,0,2.729,0.687,2.729,3.193c0,1.946-0.406,2.727-1.436,2.99v0.031
		c0.891,0.249,1.248,0.919,1.248,1.979v3.085h-1.092v-2.57c0-1.496-0.42-1.963-2.135-1.963h-2.834v4.533h-1.092v-11.279H377.691z
		 M378.781,407.907h3.537c1.137,0,1.619-0.717,1.619-2.274c0-2.119-0.279-2.29-1.963-2.29h-3.193V407.907z"/>
	<path fill="#F37321" d="M386.771,405.991c0-3.304,1.014-3.864,3.973-3.864c2.961,0,3.973,0.563,3.973,3.864v3.801
		c0,3.303-1.012,3.864-3.973,3.864c-2.959,0-3.973-0.563-3.973-3.864V405.991z M393.626,406.054c0-2.493-0.328-2.836-2.883-2.836
		s-2.883,0.343-2.883,2.836v3.677c0,2.492,0.328,2.836,2.883,2.836s2.883-0.344,2.883-2.836V406.054z"/>
	<path fill="#F37321" d="M396.458,402.252h1.092v10.096h4.752v1.185h-5.844V402.252L396.458,402.252z"/>
</g>
<polygon fill="#008D7F" points="194.241,355.889 182.368,382.857 235.479,382.878 247.47,355.889 "/>
</svg>
